<svg width="23" height="24" viewBox="0 0 23 24" fill="none" xmlns="http://www.w3.org/2000/svg">
<path d="M11.5 0.5C17.8513 0.5 23 5.64873 23 12C23 18.3513 17.8513 23.5 11.5 23.5C5.14873 23.5 0 18.3513 0 12C1.93277e-07 5.64873 5.14873 0.5 11.5 0.5ZM11.5 2.47168C6.23752 2.47168 1.97168 6.73752 1.97168 12C1.97168 17.2625 6.23751 21.5283 11.5 21.5283C16.7625 21.5283 21.0283 17.2625 21.0283 12C21.0283 6.73751 16.7625 2.47168 11.5 2.47168ZM8.73242 14.2354C8.91565 15.6498 10.1242 16.743 11.5879 16.7432C13.0518 16.743 14.2611 15.6498 14.4443 14.2354L14.501 13.7998H16.499L16.4443 14.3496C16.1991 16.8164 14.119 18.743 11.5879 18.7432H11.5752L11.3496 18.7373L11.3369 18.7363C8.92044 18.6135 6.9676 16.7345 6.73047 14.3496L6.67578 13.7998H8.67578L8.73242 14.2354ZM7.88574 7.72852C8.97452 7.72853 9.85742 8.61141 9.85742 9.7002C9.85732 10.7889 8.97445 11.6719 7.88574 11.6719C6.79702 11.6719 5.91417 10.7889 5.91406 9.7002C5.91406 8.61141 6.79695 7.72852 7.88574 7.72852ZM15.1143 7.72852C16.2029 7.72865 17.085 8.61149 17.085 9.7002C17.0849 10.7888 16.2029 11.6717 15.1143 11.6719C14.0255 11.6719 13.1427 10.7889 13.1426 9.7002C13.1426 8.61141 14.0255 7.72852 15.1143 7.72852Z" fill="#FFF6B1"/>
</svg>
