<svg width="24" height="24" viewBox="0 0 24 24" fill="none" xmlns="http://www.w3.org/2000/svg">
<path d="M10 13C10.5523 13 11 13.4477 11 14C11 14.5523 10.5523 15 10 15H8C7.44772 15 7 14.5523 7 14C7 13.4477 7.44772 13 8 13H10ZM14 9C14.5523 9 15 9.44772 15 10C15 10.5523 14.5523 11 14 11H8C7.44772 11 7 10.5523 7 10C7 9.44772 7.44772 9 8 9H14ZM17 10V5.21973C17 4.63361 16.9995 4.2547 16.9756 3.9668C16.9527 3.69139 16.9138 3.5893 16.8877 3.53907C16.7928 3.35643 16.6436 3.20719 16.4609 3.11231C16.4107 3.08624 16.3086 3.04732 16.0332 3.02442C15.8893 3.01247 15.7223 3.00613 15.5186 3.00293L14.7803 3H7.21973C6.63361 3.00001 6.2547 3.00051 5.9668 3.02442C5.69139 3.04732 5.5893 3.08624 5.53907 3.11231C5.35642 3.20719 5.20719 3.35642 5.11231 3.53907C5.08624 3.5893 5.04732 3.69139 5.02442 3.9668C5.00051 4.2547 5.00001 4.63361 5 5.21973V16.7803C5.00001 17.3664 5.00051 17.7453 5.02442 18.0332C5.04732 18.3086 5.08624 18.4107 5.11231 18.4609C5.20718 18.6436 5.35642 18.7928 5.53907 18.8877C5.5893 18.9138 5.69139 18.9527 5.9668 18.9756C6.2547 18.9995 6.63361 19 7.21973 19H10C10.5523 19 11 19.4477 11 20C11 20.5523 10.5523 21 10 21H7.21973C6.66718 21 6.1916 21.0011 5.80176 20.9688C5.39989 20.9354 5.00045 20.8612 4.61719 20.6621C4.06926 20.3775 3.62252 19.9307 3.3379 19.3828C3.13882 18.9996 3.06463 18.6001 3.03125 18.1982C2.99889 17.8084 3 17.3328 3 16.7803V5.21973C3 4.66718 2.99889 4.1916 3.03125 3.80176C3.06463 3.39989 3.13882 3.00045 3.3379 2.61719C3.62252 2.06926 4.06926 1.62252 4.61719 1.3379C5.00045 1.13882 5.39989 1.06463 5.80176 1.03125C6.1916 0.998886 6.66718 1 7.21973 1H14.7803L15.5498 1.00391C15.7867 1.00775 16.0032 1.01506 16.1982 1.03125C16.6001 1.06463 16.9996 1.13882 17.3828 1.3379C17.9307 1.62252 18.3775 2.06926 18.6621 2.61719C18.8612 3.00045 18.9354 3.39989 18.9688 3.80176C19.0011 4.1916 19 4.66718 19 5.21973V10C19 10.5523 18.5523 11 18 11C17.4477 11 17 10.5523 17 10ZM14 5C14.5523 5 15 5.44772 15 6C15 6.55229 14.5523 7 14 7H8C7.44772 7 7 6.55229 7 6C7 5.44772 7.44772 5 8 5H14Z" fill="#0015FF"/>
<path d="M18 14C18 13.4477 17.5523 13 17 13C16.4477 13 16 13.4477 16 14H18ZM16 19C16 19.5523 16.4477 20 17 20C17.5523 20 18 19.5523 18 19H16ZM21.7071 17.7071C22.0976 17.3166 22.0976 16.6834 21.7071 16.2929C21.3166 15.9024 20.6834 15.9024 20.2929 16.2929L21.7071 17.7071ZM17.7071 20.2929L17 19.5858L17 19.5858L17.7071 20.2929ZM16.2929 20.2929L17 19.5858L17 19.5858L16.2929 20.2929ZM13.7071 16.2929C13.3166 15.9024 12.6834 15.9024 12.2929 16.2929C11.9024 16.6834 11.9024 17.3166 12.2929 17.7071L13.7071 16.2929ZM17 14H16V19H17H18V14H17ZM21 17L20.2929 16.2929L17 19.5858L17.7071 20.2929L18.4142 21L21.7071 17.7071L21 17ZM16.2929 20.2929L17 19.5858L13.7071 16.2929L13 17L12.2929 17.7071L15.5858 21L16.2929 20.2929ZM17.7071 20.2929L17 19.5858L17 19.5858L16.2929 20.2929L15.5858 21C16.3668 21.781 17.6332 21.781 18.4142 21L17.7071 20.2929Z" fill="#0015FF"/>
</svg>
