<svg width="23" height="24" viewBox="0 0 23 24" fill="none" xmlns="http://www.w3.org/2000/svg">
<path d="M11.5 0.5C17.8513 0.5 23 5.64873 23 12C23 18.3513 17.8513 23.5 11.5 23.5C5.14873 23.5 0 18.3513 0 12C1.93277e-07 5.64873 5.14873 0.5 11.5 0.5ZM11.5 2.47168C6.23752 2.47168 1.97168 6.73752 1.97168 12C1.97168 17.2625 6.23751 21.5283 11.5 21.5283C16.7625 21.5283 21.0283 17.2625 21.0283 12C21.0283 6.73751 16.7625 2.47168 11.5 2.47168ZM15.9473 14.2998C15.7274 16.5138 13.8597 18.2432 11.5879 18.2432C9.31614 18.2431 7.44833 16.5137 7.22852 14.2998H15.9473ZM6.42578 7.46094C6.75505 7.01773 7.38185 6.92573 7.8252 7.25488L9.7959 8.71777C10.0484 8.90542 10.1987 9.20197 10.2002 9.5166C10.2015 9.83111 10.0544 10.1284 9.80371 10.3184L7.83301 11.8115C7.3929 12.1449 6.76519 12.0581 6.43164 11.6182C6.09837 11.178 6.18494 10.5512 6.625 10.2178L7.53418 9.5293L6.63281 8.86035L6.55371 8.79492C6.17956 8.45324 6.11731 7.87659 6.42578 7.46094ZM15.167 7.26074C15.6072 6.92724 16.2349 7.01388 16.5684 7.4541C16.9014 7.89429 16.815 8.5211 16.375 8.85449L15.4658 9.54297L16.3672 10.2119L16.4463 10.2773C16.8204 10.6191 16.8828 11.1957 16.5742 11.6113C16.2449 12.0541 15.618 12.1463 15.1748 11.8174L13.2041 10.3545C12.9515 10.167 12.8015 9.87024 12.7998 9.55566C12.7984 9.24117 12.9457 8.94393 13.1963 8.75391L15.167 7.26074Z" fill="#FFF6B1"/>
</svg>
