<svg width="153" height="138" viewBox="0 0 153 138" fill="none" xmlns="http://www.w3.org/2000/svg">
<path fill-rule="evenodd" clip-rule="evenodd" d="M67 105C67 110.523 71.4772 115 77 115C82.5228 115 87 110.523 87 105L67 105Z" fill="#21623F"/>
<path fill-rule="evenodd" clip-rule="evenodd" d="M118.065 89C115.75 83.7023 110.464 80 104.313 80C98.162 80 92.8758 83.7023 90.5611 89H86.2798C88.7916 81.4468 95.9162 76 104.313 76C112.71 76 119.834 81.4468 122.346 89H118.065Z" fill="#21623F"/>
<path fill-rule="evenodd" clip-rule="evenodd" d="M64.0648 89C61.7502 83.7023 56.4639 80 50.313 80C44.162 80 38.8758 83.7023 36.5611 89H32.2798C34.7916 81.4468 41.9162 76 50.313 76C58.7097 76 65.8343 81.4468 68.3462 89H64.0648Z" fill="#21623F"/>
<path fill-rule="evenodd" clip-rule="evenodd" d="M76.7789 5.30829e-09C76.7792 5.30829e-09 76.7795 0 76.7798 0C114.446 0 145.011 30.4006 145.278 68.0036L145.28 68L152.78 138H130.28H109H43.7798H22.2798H0L8.27982 68L8.28155 68.0034C8.28156 68.0023 8.28156 68.0011 8.28157 68H8.27982C8.54862 30.3986 39.1133 0 76.778 0C76.7783 0 76.7786 5.30829e-09 76.7789 5.30829e-09ZM16.2818 68C16.2805 68.1665 16.2798 68.3332 16.2798 68.5C16.2798 101.913 43.3666 129 76.7798 129C110.193 129 137.28 101.913 137.28 68.5C137.28 68.3332 137.279 68.1665 137.278 68H105.36L100.28 46L95.1991 68H16.2818Z" fill="#21623F"/>
</svg>
