<?xml version="1.0" encoding="UTF-8" standalone="no"?>
<svg width="115px" height="132px" viewBox="0 0 115 132" version="1.1" xmlns="http://www.w3.org/2000/svg" xmlns:xlink="http://www.w3.org/1999/xlink" xmlns:sketch="http://www.bohemiancoding.com/sketch/ns">
    <!-- Generator: Sketch Beta 3.1 (8603) - http://www.bohemiancoding.com/sketch -->
    <title>quora</title>
    <desc>Created with Sketch Beta.</desc>
    <defs></defs>
    <g id="Page-1" stroke="none" stroke-width="1" fill="none" fill-rule="evenodd" sketch:type="MSPage">
        <g id="quora" sketch:type="MSLayerGroup" fill="#0A0B09">
            <g id="Page-1" sketch:type="MSShapeGroup">
                <path d="M64.689,102.456 C62.083,103.097 59.447,103.347 56.9,103.347 C43.359,103.347 27.143,97.499 27.143,61 C27.143,24.51 44.126,14.434 57.668,14.434 C71.207,14.434 86.953,23.117 86.953,59.611 C86.953,76.154 83.588,86.675 78.638,93.245 C78.564,93.249 78.502,93.231 78.502,93.231 C67.242,78.703 52.631,82.185 49.127,83.763 C49.127,83.763 49.574,87.095 50.501,93.151 C58.23,93.149 62.057,97.157 64.73,102.333 C64.704,102.39 64.689,102.456 64.689,102.456 L64.689,102.456 L64.689,102.456 Z M86.706,109.433 C86.706,109.433 86.72,109.39 86.736,109.345 C103.189,99.142 114.191,80.529 114.191,58.227 C114.191,15.262 86.367,0 57.281,0 C29.83,0 0,21.566 0,59.055 C0,102.021 27.818,117.778 56.918,117.778 C61.491,117.778 65.937,117.229 70.203,116.212 C70.203,116.212 70.267,116.233 70.307,116.239 C81.772,136.724 98.846,131.767 103.251,130.151 C103.251,130.151 102.66,126.546 101.626,119.837 C93.389,119.626 89.719,115.491 86.706,109.433 L86.706,109.433 L86.706,109.433 Z" id="Fill-6"></path>
            </g>
        </g>
    </g>
</svg>