<?xml version="1.0" encoding="UTF-8" standalone="no"?>
<svg width="137px" height="228px" viewBox="0 0 137 228" version="1.1" xmlns="http://www.w3.org/2000/svg" xmlns:xlink="http://www.w3.org/1999/xlink" xmlns:sketch="http://www.bohemiancoding.com/sketch/ns">
    <title>veoveo</title>
    <description>Created with Sketch (http://www.bohemiancoding.com/sketch)</description>
    <defs></defs>
    <g id="Page-1" stroke="none" stroke-width="1" fill="none" fill-rule="evenodd" sketch:type="MSPage">
        <g id="Group" sketch:type="MSLayerGroup" fill-opacity="0.5" fill="#000000">
            <path d="M49.137,88.428 C44.118,83.485 41,76.618 41,69.034 C41,68.008 41.063,66.997 41.174,66 L64.881,79.017 L49.137,88.428" id="Fill-1" sketch:type="MSShapeGroup"></path>
            <path d="M68.565,96.344 C62.333,96.344 56.592,94.24 52,90.713 L68.418,80.898 L68.565,80.988 L75.412,77 L75.412,95.469 C73.224,96.039 70.929,96.344 68.565,96.344" id="Fill-2" sketch:type="MSShapeGroup"></path>
            <path d="M58.535,72.065 L42,62.961 C44.092,54.286 50.346,47.218 58.535,44 L58.535,72.065" id="Fill-3" sketch:type="MSShapeGroup"></path>
            <path d="M62,62.106 L62,42.846 C64.158,42.295 66.419,42 68.748,42 C75.166,42 81.066,44.241 85.723,47.974 L62,62.106" id="Fill-4" sketch:type="MSShapeGroup"></path>
            <path d="M78,94.847 L78,68 L94.1,76.872 C91.817,85.065 85.798,91.711 78,94.847" id="Fill-5" sketch:type="MSShapeGroup"></path>
            <path d="M68.204,227.788 C64.912,227.788 62.225,225.692 61.079,223.006 L8.665,101.823 C3.031,91.963 0,80.259 0,68.04 C0,30.31 30.319,0 68.056,0 C105.795,0 136.081,30.31 136.081,68.04 C136.081,80.275 132.657,91.569 127.039,101.43 L74.64,223.006 C73.429,226.02 71.479,227.788 68.204,227.788 M68.466,35.584 C49.908,35.584 34.839,50.653 34.839,69.203 C34.839,87.745 49.908,102.838 68.466,102.838 C86.991,102.838 102.077,87.745 102.077,69.203 C102.077,50.653 86.991,35.584 68.466,35.584" id="Fill-6" sketch:type="MSShapeGroup"></path>
            <path d="M94.929,73.008 L71.295,60.034 L71,59.854 L87.473,50 C92.265,54.91 95.226,61.617 95.226,69.002 C95.226,70.363 95.122,71.7 94.929,73.008" id="Fill-7" sketch:type="MSShapeGroup"></path>
        </g>
    </g>
</svg>