<?xml version="1.0" encoding="UTF-8" standalone="no"?>
<svg width="275px" height="227px" viewBox="0 0 275 227" version="1.1" xmlns="http://www.w3.org/2000/svg" xmlns:xlink="http://www.w3.org/1999/xlink" xmlns:sketch="http://www.bohemiancoding.com/sketch/ns">
    <title>weave</title>
    <description>Created with Sketch (http://www.bohemiancoding.com/sketch)</description>
    <defs></defs>
    <g id="Page-1" stroke="none" stroke-width="1" fill="none" fill-rule="evenodd" sketch:type="MSPage">
        <path d="M3.92428102,147.364953 C1.83160538,157.67674 0.576,167.129212 0.576,175.29271 C0.576,211.383965 20.247151,226.851645 45.3592586,226.851645 C62.1006637,226.851645 84.2830254,221.695752 104.791247,190.760391 C109.813668,214.821227 127.810679,226.851645 155.015462,226.851645 C240.396628,226.851645 274.297973,106.977121 274.297973,38.2318734 C274.297973,19.3269304 268.019946,0.85164526 247.93026,0.85164526 C230.351785,0.85164526 221.981082,10.7337745 221.981082,24.0531662 C221.981082,33.5056377 227.003504,45.9657137 237.048347,45.9657137 C240.396628,45.9657137 249.185865,44.6767403 250.441471,41.6691358 C250.441471,88.9314932 219.051336,185.174839 178.034894,185.174839 C167.990051,185.174839 163.8047,179.589288 163.8047,170.996132 C163.8047,167.129212 164.64177,161.54366 165.897375,155.528451 L196.031904,9.44480115 L135.762846,9.44480115 L107.302457,147.364953 C101.02443,168.847843 90.1425172,185.174839 73.8196472,185.174839 C64.1933393,185.174839 61.2635934,176.152025 61.2635934,166.269896 C61.2635934,162.832634 61.6821286,158.965714 62.5191988,155.528451 L92.653728,9.44480115 L32.3846697,9.44480115 L3.92428102,147.364953 Z M3.92428102,147.364953" id="w" opacity="0.5" fill="#000000" sketch:type="MSShapeGroup"></path>
    </g>
</svg>